<svg width="228" height="125" viewBox="0 0 228 125" fill="none" xmlns="http://www.w3.org/2000/svg">
<path d="M153.404 33.1812C153.21 33.2107 153.115 33.3108 153.115 33.4874C153.115 33.6523 153.21 33.7465 153.404 33.7759C154.888 34.0291 156.048 34.6238 156.884 35.56C157.72 36.4962 158.138 37.5384 158.138 38.6984C158.138 40.5767 157.549 42.0899 156.371 43.2322C155.194 44.3745 153.516 44.9456 151.331 44.9456H140.668V22.9831H149.895C152.232 22.9831 154.016 23.4541 155.265 24.4021C156.507 25.3442 157.131 26.775 157.131 28.6945C157.131 29.7073 156.79 30.6494 156.101 31.5031C155.423 32.3569 154.523 32.9163 153.404 33.1812ZM143.918 25.721V32.3451H149.783C151.031 32.3451 152.026 32.0036 152.774 31.3265C153.522 30.6494 153.893 29.8074 153.893 28.8123C153.893 27.9114 153.61 27.1695 153.045 26.5866C152.479 26.0037 151.643 25.721 150.525 25.721H143.918ZM150.754 42.1959C152.026 42.1959 153.033 41.8544 153.775 41.1772C154.517 40.5001 154.894 39.6287 154.894 38.5747C154.894 37.562 154.493 36.7259 153.698 36.0723C152.903 35.4187 151.791 35.089 150.372 35.089H143.912V42.2018H150.754V42.1959Z" fill="white"/>
<path d="M176.98 44.9397L175.196 39.6994H165.021L163.255 44.9397H159.628L167.606 22.9772H172.599L180.577 44.9397H176.98ZM165.94 36.9614H174.301L170.674 26.2215C170.503 25.6504 170.397 25.2147 170.368 24.9144C170.344 24.8202 170.332 24.7613 170.332 24.7319C170.326 24.7024 170.309 24.6612 170.273 24.62C170.238 24.5729 170.185 24.5493 170.114 24.5493C170.085 24.5493 170.055 24.5493 170.038 24.5552C170.02 24.5611 169.997 24.5729 169.979 24.5847C169.961 24.5964 169.944 24.6141 169.932 24.6318C169.92 24.6494 169.914 24.6671 169.908 24.7024C169.902 24.7377 169.896 24.7554 169.891 24.7613C169.885 24.7731 169.879 24.7966 169.873 24.8378C169.867 24.8791 169.867 24.9026 169.867 24.9144C169.838 25.1676 169.732 25.6033 169.549 26.2215L165.94 36.9614Z" fill="white"/>
<path d="M199.048 44.9397H195.056L187.973 35.0537L185.824 37.5208V44.9397H182.579V22.9772H185.824V31.1558C185.824 31.6739 185.771 32.1037 185.659 32.4452C185.547 32.7867 185.376 33.1518 185.141 33.5522C185.017 33.7465 185.011 33.8819 185.111 33.9644C185.235 34.0527 185.37 34.0056 185.523 33.8113L194.567 22.9831H198.56L190.045 32.7161L199.048 44.9397Z" fill="white"/>
<path d="M215.27 22.9772H218.514V36.455C218.514 39.246 217.755 41.401 216.23 42.9142C214.705 44.4275 212.638 45.1812 210.03 45.1812C207.409 45.1812 205.343 44.4275 203.824 42.9142C202.304 41.401 201.545 39.246 201.545 36.455V22.9772H204.789V36.7023C204.789 37.7092 204.936 38.5924 205.231 39.3578C205.525 40.1233 205.926 40.7239 206.432 41.1537C206.938 41.5835 207.492 41.9074 208.092 42.1194C208.693 42.3313 209.335 42.4373 210.03 42.4373C210.689 42.4373 211.319 42.3313 211.908 42.1194C212.497 41.9074 213.056 41.5835 213.574 41.1419C214.092 40.7062 214.504 40.1056 214.805 39.3343C215.111 38.5688 215.264 37.6856 215.264 36.6905V22.9772H215.27Z" fill="white"/>
<path d="M140.397 65.707C139.92 64.3527 139.679 62.8925 139.679 61.3262C139.679 59.76 139.92 58.3057 140.397 56.9455C140.874 55.5913 141.557 54.4019 142.44 53.3832C143.324 52.3646 144.442 51.5638 145.791 50.975C147.139 50.3921 148.64 50.0977 150.283 50.0977C151.59 50.0977 152.792 50.2743 153.887 50.6217C154.976 50.9691 155.889 51.4284 156.619 51.9936C157.349 52.5589 157.979 53.2125 158.497 53.9662C159.021 54.7198 159.41 55.4735 159.663 56.2448C159.916 57.0103 160.075 57.7934 160.134 58.5824H156.919C156.837 57.9053 156.648 57.2399 156.348 56.5863C156.048 55.9387 155.641 55.3263 155.123 54.7493C154.605 54.1781 153.934 53.713 153.115 53.3656C152.291 53.0182 151.378 52.8415 150.372 52.8415C148.841 52.8415 147.498 53.2243 146.356 53.9897C145.214 54.7552 144.354 55.7738 143.783 57.0456C143.212 58.3174 142.923 59.7424 142.923 61.3262C142.923 62.9101 143.212 64.3351 143.783 65.6069C144.354 66.8787 145.214 67.8915 146.356 68.6628C147.498 69.4282 148.835 69.811 150.372 69.811C151.378 69.811 152.291 69.6343 153.115 69.2869C153.94 68.9395 154.611 68.4744 155.123 67.9032C155.641 67.3321 156.048 66.7197 156.348 66.0662C156.648 65.4185 156.837 64.7531 156.919 64.0701H160.134C160.075 64.8591 159.916 65.6422 159.663 66.4077C159.41 67.1731 159.021 67.9327 158.497 68.6863C157.973 69.44 157.349 70.0936 156.619 70.6589C155.889 71.2241 154.976 71.6775 153.887 72.0308C152.797 72.3782 151.596 72.5548 150.283 72.5548C148.64 72.5548 147.139 72.2604 145.791 71.6775C144.442 71.0946 143.324 70.2938 142.44 69.2693C141.557 68.2447 140.874 67.0612 140.397 65.707Z" fill="white"/>
<path d="M166.122 72.3075H162.878V50.345H166.122V72.3075Z" fill="white"/>
<path d="M169.119 50.345H186.083V53.0888H179.211V72.3075H175.967V53.0888H169.113V50.345H169.119Z" fill="white"/>
<path d="M187.078 50.345H190.823L196.181 59.4833C196.363 59.7895 196.493 60.1722 196.564 60.6432C196.593 60.8552 196.675 60.9612 196.805 60.9612C196.935 60.9612 197.017 60.8552 197.046 60.6432C197.117 60.1781 197.247 59.7895 197.429 59.4833L202.787 50.345H206.532L198.412 63.4401V72.3016H195.168V63.4401L187.078 50.345Z" fill="white"/>
<path d="M139.685 88.694C139.685 87.1278 139.926 85.6735 140.409 84.3133C140.892 82.9591 141.581 81.7697 142.482 80.751C143.382 79.7324 144.513 78.9316 145.885 78.3428C147.257 77.7599 148.782 77.4655 150.472 77.4655C151.961 77.4655 153.304 77.6598 154.487 78.0425C155.671 78.4311 156.642 78.961 157.396 79.6499C158.15 80.333 158.756 81.0984 159.21 81.9404C159.663 82.7824 159.975 83.701 160.146 84.696H156.901C156.142 81.699 153.999 80.2034 150.472 80.2034C149.335 80.2034 148.293 80.4272 147.339 80.8629C146.391 81.3045 145.596 81.911 144.955 82.6764C144.313 83.4419 143.818 84.3427 143.465 85.3732C143.112 86.4036 142.929 87.5105 142.929 88.6882C142.929 89.8775 143.082 90.9786 143.394 92.0031C143.706 93.0218 144.16 93.9168 144.754 94.694C145.349 95.4712 146.126 96.0718 147.068 96.5134C148.01 96.955 149.082 97.1729 150.283 97.1729C151.219 97.1729 152.079 97.0021 152.862 96.6606C153.651 96.3191 154.311 95.8598 154.841 95.2769C155.376 94.694 155.812 94.0345 156.148 93.3044C156.489 92.5743 156.725 91.7853 156.854 90.9433H150.642V88.1877H160.128V99.6694H156.884V97.3554C156.884 96.7843 156.99 96.1896 157.202 95.5595C157.314 95.2769 157.296 95.1003 157.155 95.0237C157.025 94.9413 156.913 95.0119 156.819 95.2357C156.678 95.589 156.495 95.954 156.271 96.3191C156.048 96.6842 155.73 97.0904 155.318 97.5379C154.905 97.9854 154.452 98.374 153.946 98.7097C153.445 99.0453 152.821 99.3279 152.079 99.5634C151.337 99.799 150.548 99.9108 149.7 99.9108C148.146 99.9108 146.733 99.6164 145.461 99.0335C144.189 98.4506 143.129 97.6498 142.293 96.6253C141.457 95.6008 140.809 94.4173 140.35 93.0512C139.908 91.7028 139.685 90.2485 139.685 88.694Z" fill="white"/>
<path d="M177.851 77.7128H181.096V91.1906C181.096 93.9815 180.336 96.1366 178.811 97.6498C177.286 99.163 175.219 99.9167 172.611 99.9167C169.991 99.9167 167.924 99.163 166.405 97.6498C164.886 96.1366 164.126 93.9874 164.126 91.1906V77.7128H167.37V91.4379C167.37 92.4447 167.518 93.328 167.812 94.0934C168.106 94.8589 168.507 95.4594 169.013 95.8893C169.52 96.3191 170.073 96.6429 170.674 96.8549C171.274 97.0669 171.916 97.1729 172.611 97.1729C173.27 97.1729 173.9 97.0669 174.489 96.8549C175.078 96.6429 175.637 96.3191 176.155 95.8775C176.674 95.4359 177.086 94.8412 177.386 94.0698C177.692 93.3044 177.845 92.4212 177.845 91.4261V77.7128H177.851Z" fill="white"/>
<path d="M188.326 99.6753H185.082V77.7128H188.326V99.6753Z" fill="white"/>
<path d="M199.778 77.7128C201.374 77.7128 202.799 77.913 204.065 78.3075C205.331 78.702 206.373 79.2378 207.203 79.909C208.034 80.5803 208.717 81.3869 209.258 82.329C209.8 83.2711 210.189 84.2662 210.424 85.3143C210.66 86.3624 210.771 87.487 210.771 88.694C210.771 89.8893 210.648 91.0139 210.406 92.0679C210.165 93.116 209.759 94.117 209.205 95.059C208.646 96.0011 207.951 96.8137 207.121 97.4908C206.285 98.1679 205.243 98.6979 203.988 99.0924C202.734 99.481 201.333 99.6812 199.778 99.6812H192.318V77.7187H199.778V77.7128ZM200.497 96.9315C201.504 96.9315 202.41 96.7784 203.217 96.4722C204.024 96.166 204.689 95.7538 205.219 95.2357C205.749 94.7175 206.191 94.0993 206.544 93.3868C206.897 92.6685 207.156 91.9266 207.303 91.1494C207.456 90.3721 207.533 89.5537 207.533 88.6881C207.533 87.8226 207.456 87.0042 207.303 86.2269C207.15 85.4497 206.897 84.7019 206.544 83.9895C206.191 83.2711 205.749 82.6588 205.219 82.1406C204.689 81.6225 204.024 81.2103 203.217 80.9041C202.41 80.5979 201.504 80.4448 200.497 80.4448H195.563V96.9256H200.497V96.9315Z" fill="white"/>
<path d="M228 80.4566H216.777V87.328H226.004V90.0718H216.777V96.9432H228V99.6871H213.533V77.7245H228V80.4566Z" fill="white"/>
<path d="M74.9983 81.1691C74.645 83.4477 74.2329 85.6381 75.6696 87.7578C77.6833 90.7313 80.0385 93.2926 83.5478 94.2759C85.9266 94.9413 88.4408 95.2592 90.9138 95.4005C94.27 95.589 97.6557 95.3417 101.018 95.5006C104.833 95.6773 108.184 97.0198 110.568 100.199C110.774 100.47 111.075 100.753 111.11 101.053C111.157 101.483 110.992 101.93 110.921 102.372C110.456 102.284 109.985 102.207 109.526 102.101C109.444 102.084 109.385 101.93 109.32 101.836C107.353 99.0041 104.539 97.6969 101.206 97.5026C98.6802 97.3554 96.1365 97.4967 93.6046 97.3613C90.4781 97.1905 87.3221 97.0963 84.2544 96.5487C80.8805 95.954 78.1308 94.0227 75.9051 91.4025C75.7108 91.1729 75.5047 90.955 75.2986 90.7372C75.2809 90.7136 75.228 90.7254 74.9924 90.6842C75.8109 93.3692 75.5754 96.2249 77.4831 98.5565C79.9031 101.512 82.8648 102.584 86.5507 101.754C89.6125 101.065 92.6508 100.211 95.742 99.6988C100.323 98.9393 104.527 100.105 108.331 102.755C108.896 103.149 109.391 103.626 108.878 104.339C108.39 105.028 107.777 104.81 107.194 104.392C102.99 101.365 98.3681 100.888 93.4457 102.078C90.7607 102.725 88.0816 103.402 85.3613 103.868C82.3408 104.386 79.6793 103.42 77.4065 101.377C77.2476 101.236 77.065 101.118 76.8001 100.918C76.6352 102.443 76.4645 103.856 76.3526 105.275C76.3349 105.487 76.541 105.758 76.7118 105.934C79.1259 108.502 82.0699 109.826 85.6204 109.679C85.9796 109.661 86.4447 109.461 86.6626 109.19C90.7254 104.074 96.06 102.914 102.154 104.239C103.367 104.504 104.533 104.986 105.711 105.399C106.352 105.622 106.965 105.981 106.664 106.794C106.346 107.648 105.669 107.542 104.963 107.236C102.39 106.117 99.7106 105.475 96.8961 105.728C91.1905 106.24 87.1513 109.944 85.9207 115.762C85.6734 116.939 85.5439 118.152 85.4438 119.353C85.3319 120.696 84.9845 121.014 83.6774 120.76C82.7706 121.92 82.3113 121.915 81.4222 120.778C75.9228 113.736 68.7452 109.444 59.9072 108.272C54.2546 107.524 48.6963 108.496 43.503 110.88C39.9996 112.488 36.6375 114.39 33.2401 116.221C32.5217 116.609 31.9683 116.733 31.2735 116.238C28.877 114.525 26.2921 113.035 24.0841 111.11C20.5748 108.048 19.6681 103.75 19.6857 99.3456C19.6975 94.9648 20.0684 90.5782 20.3687 86.1975C20.616 82.5881 20.6749 79.0258 19.4914 75.5283C18.8025 73.491 19.621 72.649 21.6759 73.2201C23.2245 73.65 24.7318 74.2388 26.2921 74.7628C25.8623 72.7785 25.4443 70.8414 24.9909 68.7747C22.0763 69.0573 19.7976 71.0416 17.1951 71.9719C17.6484 74.2565 18.1489 76.3879 18.4728 78.5371C18.832 80.9394 18.4257 83.2947 17.5719 85.5616C17.2775 86.3388 17.0008 87.1337 16.6298 87.8697C14.2098 92.6273 14.9929 97.2612 17.1362 101.842C17.4424 102.49 17.9311 103.079 18.1195 103.75C18.2373 104.186 17.9605 104.727 17.8604 105.222C17.407 105.081 16.7181 105.081 16.5415 104.774C13.4326 99.5104 11.8899 94.0227 14.4218 88.0287C14.8752 86.9453 15.3462 85.8678 15.7584 84.7726C17.2775 80.7804 16.6121 76.9061 15.1872 72.9787C14.1038 73.3968 13.1323 73.7677 12.1195 74.1564C12.4198 75.3929 12.7555 76.5823 12.991 77.7893C13.3914 79.8384 13.2265 81.8521 12.4905 83.8187C11.3835 86.7981 10.2236 89.7657 9.96451 92.9806C9.90563 93.6753 9.42869 94.1111 8.82222 93.8461C8.44538 93.6871 7.98611 92.9688 8.06855 92.6155C8.69268 89.8952 9.34626 87.1749 10.1706 84.5076C10.7594 82.6175 11.4719 80.7687 11.1303 78.755C10.9243 77.5302 10.5651 76.3291 10.2118 75.1397C10.1411 74.9159 9.73487 74.6274 9.50524 74.6392C8.5337 74.7098 7.57395 74.8806 6.63186 75.0101C6.6083 75.175 6.56709 75.2692 6.59653 75.3222C8.5337 78.7137 7.42674 81.9934 6.24913 85.273C6.01361 85.9266 5.56022 86.4271 4.91254 86.0621C4.57692 85.8736 4.31784 85.1141 4.40616 84.6901C4.62991 83.5832 5.07151 82.5233 5.41302 81.4399C6.00183 79.5557 5.7192 77.7893 4.71823 76.0935C4.31784 75.4105 3.85268 75.0808 3.06957 75.2751C2.88704 75.3163 2.69273 75.3222 2.50431 75.3399C1.80952 75.4046 1.13239 75.3222 1.04996 74.4743C0.967524 73.6264 1.59166 73.4439 2.31001 73.3732C4.72412 73.1377 7.13823 72.9375 9.53468 72.5901C13.5503 72.0072 16.9772 69.8875 20.5277 68.127C23.619 66.5961 26.8456 66.1074 30.1194 67.0612C32.6454 67.7972 35.0889 68.8748 37.4677 70.0053C40.4 71.4007 43.1379 73.2025 46.3528 73.9915C47.0771 74.1681 47.5304 74.0975 48.0192 73.5028C49.3204 71.9366 50.6865 70.4233 52.0525 68.8689C51.9053 68.7275 51.8405 68.6216 51.7581 68.5921C46.6943 67.0436 41.6011 65.5951 36.5727 63.9405C30.3078 61.8738 24.4433 62.3979 18.8908 66.0603C14.6043 68.8865 9.85852 70.2113 4.72412 70.2172C3.70548 70.2172 2.68684 70.3409 1.66232 70.4174C0.973411 70.4704 0.378716 70.2702 0.325724 69.5283C0.266843 68.7158 0.873315 68.4744 1.59755 68.4155C4.31195 68.2035 7.02636 67.968 9.74076 67.7442C10.7712 67.6618 11.413 67.2967 10.9949 66.1074C10.9714 66.0367 10.9714 65.9602 10.9655 65.8836C10.73 63.5696 10.73 63.5931 8.4395 63.6697C6.13137 63.7521 3.82324 63.7816 1.50923 63.8346C0.814433 63.8522 0.0430952 63.917 0.00187861 62.9278C-0.045226 61.862 0.802657 61.8738 1.51511 61.8562C4.0882 61.7855 6.66718 61.7443 9.24027 61.6913C9.61711 61.6854 9.98806 61.6324 10.5533 61.5853C10.4414 60.2311 10.3767 58.9239 10.1883 57.6344C10.1588 57.446 9.55234 57.2399 9.19906 57.2222C6.70251 57.075 4.21185 56.9632 1.71531 56.8572C1.02052 56.8277 0.343388 56.7159 0.372828 55.8503C0.402268 54.8965 1.14417 54.8906 1.8684 54.9259C4.13531 55.026 6.40811 55.1202 8.68091 55.2085C9.0813 55.2262 9.48757 55.2085 10.0293 55.2085C9.90562 53.8189 9.86441 52.5707 9.64066 51.3636C9.58767 51.0692 8.96942 50.7336 8.57492 50.6688C6.82027 50.3862 5.05385 50.2037 3.28743 49.9799C3.06368 49.9505 2.83404 49.9269 2.61619 49.8798C1.95083 49.7503 1.27959 49.556 1.39735 48.6963C1.521 47.8308 2.19813 47.8308 2.88704 47.925C4.42382 48.1369 5.9665 48.3312 7.50329 48.5256C8.09799 48.6021 8.69268 48.661 9.46991 48.7552C9.29915 46.8946 9.16373 45.134 8.93998 43.3853C8.91054 43.1556 8.43361 42.8848 8.12154 42.82C7.19711 42.6316 6.25502 42.5433 5.31881 42.402C4.62991 42.296 3.84091 42.2076 3.92923 41.2656C4.02344 40.3293 4.77711 40.3529 5.49546 40.4412C6.50232 40.5708 7.50918 40.7003 8.71035 40.8534C8.58081 39.3519 8.48071 37.9329 8.32173 36.5257C7.80947 31.9035 8.3394 30.9555 12.5199 28.8594C15.5758 27.3285 18.8614 26.7102 22.1999 26.145C26.4452 25.4266 30.6493 24.4669 34.9829 23.5895C34.8829 23.0891 34.8063 22.7063 34.7062 22.2117C31.5149 22.3354 28.3765 22.4531 25.2441 22.5768C22.4413 22.6887 19.6445 22.8064 16.8477 22.9124C16.1293 22.9419 15.2756 23.0596 15.2343 21.9998C15.1931 20.9517 16.0351 20.9752 16.7652 20.9458C22.3295 20.7162 27.8878 20.4924 33.452 20.2569C33.9408 20.2333 34.5531 20.4159 34.5767 19.5444C34.5943 18.7908 34.5296 18.3197 33.5992 18.1195C30.3431 17.4306 27.1106 16.6181 23.8663 15.8703C23.1361 15.7054 22.4767 15.464 22.6769 14.5631C22.8888 13.6151 23.6661 13.7859 24.3373 13.939C27.7642 14.728 31.191 15.5347 34.7533 16.3708C34.9535 15.6583 35.2126 14.993 35.3009 14.3099C35.3303 14.0803 34.9535 13.7035 34.6709 13.5563C33.0693 12.6966 31.4442 11.884 29.825 11.0656C29.1655 10.7359 28.5708 10.3237 29.0065 9.49938C29.4482 8.66327 30.1135 8.97534 30.7553 9.31096C32.5276 10.2354 34.3117 11.1304 36.0899 12.0371C37.0261 10.7123 37.9152 9.45816 38.8337 8.16278C38.0801 7.82127 37.244 7.5622 36.5727 7.07349C36.2253 6.82619 36.1782 6.16672 35.9957 5.68979C36.4962 5.5838 37.1262 5.23052 37.4677 5.41305C39.4226 6.44346 41.2008 6.21383 43.2086 5.36595C45.0928 4.57106 47.2125 4.34142 49.2203 3.82916C49.8562 3.66429 50.5098 3.47587 51.081 3.16381C52.6413 2.31003 54.1545 1.37383 55.6913 0.484729C56.2978 0.137333 56.9867 -0.0275328 57.3753 0.708477C57.7875 1.50337 57.2399 1.93909 56.551 2.27471C53.9484 3.54653 51.4872 5.01855 49.5559 7.22658C49.291 7.53276 49.0496 7.8566 48.6374 8.36887C51.3636 7.76828 53.8778 7.89193 56.3272 6.60244C60.7021 4.3002 65.3537 2.52789 69.8934 0.54361C70.2408 0.39052 70.6176 0.313976 70.965 0.172662C71.6362 -0.0864135 72.2839 -0.145294 72.5724 0.655484C72.8727 1.47393 72.2957 1.79777 71.6303 2.03329C69.9935 2.62799 68.3271 3.15792 66.7374 3.8586C63.6579 5.21874 60.6196 6.6731 57.5637 8.09213C57.3341 8.19811 57.128 8.35709 56.8395 8.52784C57.8935 9.12254 58.8532 9.71135 59.8601 10.2059C60.1074 10.3296 60.5195 10.2236 60.8198 10.1176C67.5911 7.69762 74.3506 5.25996 81.116 2.82818C81.2574 2.77519 81.4046 2.73986 81.5459 2.68687C82.2407 2.39835 82.9413 2.29237 83.2357 3.16969C83.5007 3.97636 82.9001 4.3002 82.2407 4.53573C77.1828 6.33748 72.1191 8.15101 67.0612 9.96454C65.3654 10.571 63.6697 11.201 61.8738 11.8605C62.3861 12.5023 62.7452 13.1029 63.2516 13.5327C63.5225 13.7623 64.0818 13.833 64.4587 13.7447C70.282 12.4022 76.0876 10.9891 81.9168 9.67013C85.4202 8.87524 88.9531 8.204 92.48 7.50332C93.1984 7.362 94.1169 7.04994 94.3112 8.16278C94.5055 9.26385 93.5399 9.28152 92.8215 9.44049C83.5949 11.5072 74.3624 13.5739 65.1358 15.6406C64.9945 15.6701 64.8591 15.7349 64.6235 15.8173C64.8296 16.4532 64.965 17.0891 65.2536 17.6426C65.3831 17.884 65.8483 18.0842 66.1485 18.0724C72.7726 17.8075 79.3908 17.5248 86.009 17.1892C86.4094 17.1657 86.9158 16.7123 87.1572 16.3237C88.2759 14.4866 89.6479 12.9027 91.4025 11.6485C93.4692 10.1706 95.5948 10.1 97.8146 11.254C100.146 12.467 102.019 14.2334 103.603 16.2824C108.554 22.6828 111.316 29.8074 110.427 38.0212C109.726 44.4863 106.341 49.4088 101.136 53.1124C99.3867 54.3548 97.4083 55.2674 95.5595 56.3744C95.0649 56.6688 94.5585 57.0633 94.2465 57.5343C90.1307 63.8051 84.7254 68.5745 77.854 71.6245C76.382 72.2781 76.382 73.6559 75.7991 75.0749C76.5057 74.91 76.9708 74.8276 77.4183 74.6922C81.3633 73.4969 85.0257 71.6893 88.3819 69.3164C88.9707 68.8983 89.3181 68.0033 89.5595 67.2614C89.9717 66.0014 90.2308 64.7354 91.9619 64.7119C92.1503 64.7119 92.4212 64.1054 92.5036 63.7462C92.8569 62.1211 93.3456 61.7737 94.9412 62.1152C95.165 62.1623 95.3829 62.2271 95.6007 62.2801C97.8441 62.8512 97.8617 62.8866 97.479 65.1182C97.4496 65.3007 97.4378 65.4832 97.426 65.6481C98.9569 66.2722 99.0452 66.2781 99.3396 64.759C99.6399 63.1928 100.458 62.1977 101.93 61.603C103.932 60.8022 105.881 59.8778 107.871 59.0417C109.338 58.4293 109.773 58.5588 110.833 59.7836C112.17 61.3321 113.453 62.9278 114.843 64.4293C115.779 65.442 116.097 66.4606 115.756 67.8326C115.308 69.6461 115.391 69.6696 117.239 69.9523C117.74 69.0632 118.052 67.7148 118.77 67.4381C119.648 67.1024 120.919 67.5205 121.926 67.8797C123.875 68.5745 122.533 70.1112 122.639 71.283C124.529 72.384 124.541 72.3899 124.046 74.6451C123.61 76.6411 123.175 78.6372 122.674 80.6156C122.291 82.1347 121.797 82.4291 120.313 82.0346C119.571 81.8403 119.241 81.9522 119.053 82.7706C118.187 86.5331 117.257 90.2779 116.356 94.0286C116.291 94.2877 116.215 94.5409 116.174 94.8C116.044 95.5183 115.714 96.0777 114.89 95.8657C114.066 95.6537 114.101 95.0178 114.272 94.3171C115.255 90.272 116.209 86.221 117.169 82.17C117.222 81.9522 117.257 81.7284 117.322 81.3928C116.963 81.275 116.627 81.1278 116.274 81.0454C108.937 79.3673 101.595 77.7069 94.2582 76.017C93.428 75.8286 93.0747 75.964 92.8569 76.8884C91.9972 80.6097 91.0257 84.3074 90.1012 88.011C89.9599 88.588 89.8363 89.171 89.6538 89.96C91.7028 90.1719 93.6046 90.3957 95.5183 90.5252C95.742 90.5429 96.1306 90.0483 96.2131 89.7362C96.7607 87.7284 97.1787 85.6852 97.7616 83.6892C98.6449 80.6803 101.389 78.9669 104.397 79.438C107.612 79.9385 109.785 82.906 109.214 86.1151C108.89 87.9404 108.507 89.7539 108.066 91.5497C107.895 92.2445 108.072 92.5625 108.678 92.8804C110.698 93.9403 112.382 95.3711 113.377 97.4849C113.506 97.7558 113.736 98.0678 113.689 98.321C113.612 98.745 113.447 99.3691 113.153 99.4869C112.841 99.6046 112.087 99.3456 111.958 99.057C109.926 94.6115 105.964 93.4457 101.648 92.9806C97.8853 92.5743 94.0757 92.4977 90.3427 91.9325C87.8697 91.5556 85.4026 90.7784 83.0885 89.8069C79.4085 88.2583 76.9414 85.3555 75.2986 81.752C75.1926 81.5577 75.0925 81.3634 74.9983 81.1691ZM21.776 75.3104C22.0292 77.6951 22.406 79.9679 22.4649 82.2525C22.5238 84.5312 22.2706 86.8157 22.1469 89.1651C22.4531 89.1297 22.6415 89.1239 22.8182 89.0826C25.1793 88.4938 27.5051 87.8285 29.3422 86.0974C29.8191 85.644 30.4609 85.4968 30.8083 86.0738C31.0144 86.4212 30.9202 87.1926 30.6493 87.5282C30.1901 88.0993 29.5483 88.6234 28.8711 88.9001C26.8868 89.7127 24.8378 90.378 22.83 91.1258C22.4767 91.2553 21.9173 91.485 21.8879 91.7205C21.7053 93.2749 21.6347 94.8412 21.5228 96.6076C24.8201 95.4889 27.8525 94.4467 30.3314 92.2681C30.8731 91.7912 31.4619 91.5085 32.0095 92.1268C32.5747 92.7627 32.1861 93.3515 31.6326 93.7695C30.6611 94.4879 29.719 95.3005 28.6415 95.8127C26.6337 96.7666 24.5257 97.5261 22.4767 98.4035C22.1411 98.5448 21.6229 98.8922 21.6347 99.1218C21.7171 100.676 21.9173 102.231 22.1234 104.156C24.6729 102.655 26.8986 101.371 29.089 100.04C29.7367 99.6517 30.3667 99.1395 30.9496 99.9638C31.4795 100.712 30.9261 101.259 30.3078 101.624C28.2175 102.843 26.1155 104.032 24.0135 105.234C23.6366 105.451 23.248 105.658 22.724 105.952C23.3246 106.894 23.8545 107.713 24.3726 108.531C24.8555 109.302 25.403 109.561 26.1862 108.872C26.5512 108.549 27.0046 108.331 27.4168 108.06C28.0409 107.654 28.7357 107.183 29.2715 108.06C29.8014 108.925 29.0595 109.344 28.4472 109.75C27.9231 110.097 27.3991 110.445 26.6631 110.927C28.2941 111.987 29.7602 112.894 31.1792 113.877C31.8976 114.372 32.4393 114.342 33.2165 113.913C36.1665 112.288 39.0928 110.592 42.1782 109.261C51.6933 105.145 61.2497 104.763 70.6882 109.538C71.7893 110.097 72.2839 109.862 72.8374 108.925C74.9336 105.393 74.9689 101.583 74.3565 97.6969C74.3153 97.4437 73.7618 97.1199 73.4203 97.0904C72.1073 96.9668 70.7825 96.9786 69.4635 96.8785C68.7628 96.8255 68.1387 96.5016 68.3212 95.6655C68.492 94.8765 69.1161 94.8647 69.8521 94.953C71.1357 95.1061 72.437 95.1003 73.8855 95.165C73.6912 94.2583 73.4792 93.6753 73.4557 93.0865C73.4144 92.0031 72.8727 91.8206 71.8718 91.7264C69.9699 91.5497 68.0857 91.1258 66.2015 90.7607C65.548 90.6312 65.1593 90.0836 65.4832 89.4948C65.6657 89.1592 66.2899 88.959 66.7432 88.9119C67.1201 88.8707 67.5264 89.1415 67.9326 89.2475C69.5342 89.6714 71.1416 89.9953 72.8197 89.6714C72.7785 88.7058 72.702 87.8402 72.7079 86.9747C72.7079 86.2858 72.3958 86.1209 71.7481 86.0326C70.6706 85.8854 69.6048 85.5851 68.5509 85.3084C67.862 85.1258 67.3262 84.7196 67.6147 83.9188C67.8796 83.1828 68.5038 83.2358 69.1397 83.4301C69.8993 83.6597 70.6647 83.8717 71.436 84.0601C72.2663 84.2603 72.6843 84.0012 72.7137 83.0474C72.7667 81.54 72.8315 80.0091 73.1141 78.5312C73.5675 76.1406 74.2034 73.7795 74.7864 71.3124C74.3977 71.5185 73.9444 71.6834 73.5793 71.966C71.8129 73.3261 69.8816 74.5391 68.3566 76.1348C63.1986 81.5341 60.2134 88.1759 57.9465 95.1768C57.4813 96.6076 57.3341 98.1326 57.0515 99.6223C56.9278 100.282 56.5098 100.765 55.8974 100.506C55.5265 100.347 55.1084 99.64 55.1614 99.2455C55.6383 95.7892 56.3213 92.3623 57.9523 89.2357C58.7826 87.646 58.9886 86.0267 58.8061 84.2956C58.6707 82.9767 58.5058 81.6637 58.441 80.3388C58.4057 79.5793 58.0701 79.4262 57.3812 79.3791C56.2566 79.3025 55.1319 79.12 54.0191 78.9139C53.3243 78.7844 52.7591 78.3958 53.0064 77.5773C53.2595 76.7589 53.9072 76.8825 54.5961 77.0297C55.6737 77.2594 56.7806 77.3712 58.0348 77.5538C57.6167 74.0033 57.0691 70.8001 55.8915 67.5264C55.4911 67.9503 55.2262 68.2094 54.9789 68.4861C53.1123 70.6235 51.3165 72.8315 49.3675 74.8924C45.1222 79.3791 42.767 84.7078 42.0369 90.7902C41.978 91.2553 42.0428 91.7676 42.1782 92.2269C42.7964 94.3289 43.4441 96.4251 44.1036 98.5153C44.3273 99.2219 44.4627 99.9285 43.5678 100.182C42.6787 100.435 42.4255 99.7636 42.2076 99.0512C41.4304 96.5193 40.6473 93.9933 39.7935 91.485C38.1154 86.5566 35.5247 82.2289 30.8907 79.5557C28.1822 77.9954 25.2617 76.8001 22.4296 75.4517C22.2176 75.3634 21.9467 75.3457 21.776 75.3104ZM47.872 54.5078C48.2547 54.5549 48.4431 54.6079 48.6256 54.6021C54.29 54.3606 59.972 54.2605 65.6245 53.8072C69.3988 53.501 73.0847 52.5412 76.4645 50.6924C78.8786 49.3675 80.7215 47.5481 81.5341 44.8455C82.5468 41.4775 83.6244 38.1272 84.5076 34.7239C85.9796 29.036 87.5635 23.3952 90.5016 18.2491C91.0433 17.307 91.6675 16.3767 92.4094 15.5876C93.6459 14.2628 95.1179 14.0273 96.7607 14.8045C98.9864 15.8526 100.682 17.5425 101.883 19.6445C105.004 25.0969 106.829 30.9084 106.576 37.2734C106.5 39.2401 105.828 40.9711 104.609 42.4903C103.108 44.3627 101.206 45.8111 98.9687 46.5707C94.6468 48.0427 90.2602 49.3499 85.8677 50.604C82.7765 51.4814 79.4909 51.817 76.5351 53.0005C71.2771 55.1025 65.8483 56.0446 60.2722 56.3273C56.2271 56.5333 52.1761 56.498 48.1251 56.604C47.7601 56.6158 47.183 56.7394 47.0712 56.9808C46.7709 57.6344 46.6708 58.3763 46.4824 59.1123C46.8474 59.1948 47.03 59.2654 47.2125 59.2772C58.9062 60.2958 70.5823 60.4842 82.1877 58.3704C88.0286 57.3106 93.6753 55.6266 98.7214 52.3646C104.998 48.3136 108.69 42.714 108.613 35.0536C108.554 28.7769 106.276 23.2363 102.584 18.2432C101.047 16.1647 99.2572 14.3158 96.9432 13.0558C95.3946 12.2138 93.9285 12.2256 92.48 13.2972C90.7077 14.6102 89.2534 16.2059 88.4173 18.2432C86.5507 22.7947 84.8491 27.4109 82.959 31.9447C81.6048 35.1832 80.121 38.3745 78.5606 41.5187C77.8246 43.0084 76.488 44.0565 74.7687 44.0506C73.173 44.0447 71.5773 43.6502 69.9817 43.4736C69.5342 43.4206 69.0337 43.4206 68.6274 43.5737C67.2261 44.0977 65.8954 44.9162 64.4528 45.2282C61.9857 45.7582 59.4302 45.9054 56.9455 46.3646C52.3704 47.2066 49.5736 50.1448 47.872 54.5078ZM31.7622 33.8584C28.1587 34.506 24.6494 35.2126 21.1165 35.7425C17.5248 36.2784 13.9095 36.0899 10.3237 35.5306C10.0764 36.5904 10.4473 37.0026 11.3718 37.0615C12.6554 37.1439 13.9331 37.297 15.2108 37.3971C15.9115 37.4501 16.5768 37.6032 16.5179 38.4511C16.4591 39.2989 15.7643 39.3696 15.0754 39.3284C13.6151 39.2401 12.1549 39.1517 10.6299 39.0575C10.6299 39.4049 10.5945 39.7052 10.6357 39.9937C11.0656 43.1792 10.2 42.9319 13.7152 43.2263C14.4159 43.2852 14.9988 43.6031 14.8222 44.3156C14.728 44.6924 14.0803 45.1164 13.6387 45.1694C12.8497 45.2636 12.0253 45.0987 11.1186 45.0339C11.1892 45.8406 11.1716 46.5295 11.3364 47.1772C11.413 47.4716 11.8251 47.8779 12.1078 47.8955C13.2265 47.978 14.357 47.9309 15.5052 47.9309C15.5464 47.6836 15.5994 47.5422 15.5876 47.4009C15.5464 46.7061 15.7584 46.0643 16.5179 46.1762C16.9065 46.2351 17.3894 46.8239 17.513 47.2596C17.7544 48.1252 17.8545 49.0496 17.8604 49.9505C17.8604 50.3096 17.5248 50.869 17.2186 50.975C16.9183 51.0751 16.4473 50.7395 16.0881 50.5275C15.8585 50.3921 15.6995 49.974 15.4993 49.9681C14.2275 49.9151 12.9557 49.9387 11.7486 49.9387C11.6662 50.1742 11.6132 50.2449 11.6191 50.3096C11.7604 52.082 11.8546 53.8602 12.0607 55.6266C12.4139 58.706 11.6249 58.5647 15.2343 57.9818C16.306 57.8111 17.3364 57.3812 18.3786 57.0456C19.1087 56.8042 19.9389 56.3979 20.3157 57.3989C20.6985 58.4293 19.7446 58.6236 19.0616 58.9121C18.7142 59.0593 18.3609 59.2065 17.9958 59.2948C16.2059 59.7129 14.41 60.1074 12.5023 60.5372C12.6789 62.498 12.8614 64.547 13.0793 66.8964C14.7692 66.0014 16.3236 65.3184 17.725 64.4057C23.9075 60.3841 30.4491 59.7306 37.3676 62.1152C37.7739 62.2566 38.2037 62.3449 38.7395 62.4862C38.9633 59.5657 39.0869 56.8042 39.4167 54.0662C39.5698 52.7885 39.1164 52.1173 37.9918 51.9936C36.1606 51.7875 34.3117 51.7228 32.4687 51.6757C31.7386 51.658 30.9025 51.8759 30.7671 50.8808C30.6258 49.8621 31.4501 49.815 32.2038 49.7326C34.665 49.4618 37.0968 49.5736 39.4697 50.3214C40.0585 47.8543 39.8288 47.4068 37.6738 46.5118C36.1606 45.8877 34.6002 45.6816 33.0046 46.029C31.456 46.3646 29.9369 46.8592 28.3824 47.1477C27.9644 47.2243 27.4462 46.7945 26.9752 46.5943C27.1695 46.1939 27.2813 45.5344 27.5757 45.4402C30.5551 44.451 33.5521 43.4088 36.7729 44.1507C37.6385 44.3509 38.4687 44.6983 39.3342 44.9809C39.3931 42.3725 38.7925 41.6542 36.3313 41.3598C35.5835 41.2714 34.824 41.2126 34.0703 41.1831C31.2264 41.0654 28.5061 41.6836 25.8329 42.5845C25.144 42.8141 24.5081 42.6787 24.4315 41.9545C24.3903 41.5658 24.8437 40.9417 25.2323 40.7356C25.9212 40.3765 26.7279 40.2057 27.4992 40.0408C29.1125 39.6934 30.7435 39.4049 32.4628 39.0752C32.2097 37.2558 31.9741 35.4717 31.7622 33.8584ZM47.5363 6.04896C47.2066 6.10196 46.8769 6.13728 46.553 6.21972C36.0428 8.75748 34.3058 20.9811 38.8455 27.3285C41.0889 30.4668 44.4745 31.7092 48.0604 32.4158C52.6177 33.3167 56.7571 32.245 60.2075 29.1361C64.8532 24.9497 64.912 17.9723 60.4842 13.4032C56.0269 8.80458 49.0083 8.69271 44.6158 13.15C41.0712 16.7476 40.8534 21.9703 44.1212 25.2912C46.9357 28.1587 52.1055 28.8417 55.9622 26.8574C58.7472 25.4266 60.2958 22.618 59.8601 19.7976C59.3831 16.7005 56.7571 13.9743 53.7541 13.5386C51.2458 13.1735 49.1968 14.1097 47.6659 16.0705C46.2527 17.8722 46.4353 20.5749 47.9603 22.1293C49.4382 23.6367 52.3646 23.8251 54.1545 22.512C55.0554 21.8526 55.4911 20.9635 55.2615 19.8447C55.0201 18.6789 54.4607 17.7015 53.2713 17.2834C52.4764 17.0008 51.8582 17.2716 51.5343 18.0901C51.234 18.8496 51.605 19.2265 52.2939 19.4326C52.9592 19.6328 53.4009 20.0273 53.1594 20.7633C52.8827 21.6112 52.1761 21.464 51.5461 21.2873C50.0976 20.8751 49.3322 19.6799 49.5029 18.1725C49.6796 16.5827 50.8395 15.3933 52.3528 15.252C54.184 15.0813 55.8267 16.1235 56.7571 18.043C57.6815 19.9507 57.4283 21.9998 56.0976 23.4365C53.8542 25.8565 49.2085 26.0213 46.7885 23.7662C43.9093 21.0812 44.08 16.4002 47.1536 13.6917C50.8749 10.4179 56.3861 10.8949 59.601 14.7692C62.9866 18.8496 62.5333 24.5375 58.5588 27.5934C56.0623 29.5071 53.2007 30.1312 50.1153 29.9546C45.6934 29.7014 41.8484 26.9929 40.4706 23.1538C39.0281 19.1382 40.1762 14.3158 43.6149 11.4954C45.4107 9.98809 46.241 7.93904 47.5363 6.04896ZM122.262 73.4969C121.826 73.3497 121.485 73.1966 121.126 73.1142C111.605 71.018 102.083 68.9277 92.5507 66.8669C92.2857 66.808 91.7264 67.0377 91.6675 67.2379C91.0963 69.1868 90.6076 71.1593 90.0836 73.173C90.4722 73.2849 90.7136 73.3732 90.9609 73.4262C95.6184 74.3978 100.294 75.3104 104.939 76.3526C109.879 77.4596 114.796 78.6961 119.724 79.8678C120.166 79.9738 120.713 80.3271 120.896 79.5263C121.349 77.5479 121.797 75.5636 122.262 73.4969ZM91.4084 58.1467C90.9727 58.2056 90.8314 58.2056 90.6959 58.2527C86.1916 59.7423 81.5576 60.6491 76.8472 61.1437C75.7579 61.2615 74.963 61.5971 74.3212 62.5392C73.8443 63.2399 73.1318 63.8051 72.4664 64.3586C69.1397 67.126 65.1064 68.1152 60.9729 68.8218C60.2016 68.9513 59.4302 69.0808 58.5824 69.2221C58.9886 71.2005 59.3714 73.0612 59.7835 75.0455C62.492 74.4095 65.0769 73.8561 67.6264 73.173C68.4743 72.9434 69.2398 72.3958 70.0288 71.9601C71.7717 70.9886 73.4733 69.9346 75.2574 69.0514C75.7991 68.7864 76.7412 68.7217 77.1887 69.022C77.8599 69.4753 78.2662 69.2693 78.8079 68.9866C82.853 66.8846 86.3623 64.1054 89.3652 60.6844C90.0188 59.9366 90.6194 59.13 91.4084 58.1467ZM41.136 57.2517C40.8475 58.1643 41.1949 58.5647 42.2076 58.6707C44.4098 58.9003 44.4039 58.9533 44.9986 56.7806C45.0869 56.4509 45.1693 56.1212 45.2753 55.7973C46.2939 52.6708 47.5128 49.5442 50.2095 47.554C52.0525 46.188 52.7237 44.8573 52.3292 42.6198C51.9406 40.4 51.9406 38.1037 51.7993 35.8426C51.7522 35.0477 51.5402 34.612 50.5981 34.6532C49.7031 34.6945 48.7787 34.5708 47.9014 34.3765C47.1065 34.1999 46.8415 34.5002 46.6296 35.1949C45.3283 39.4991 44.0977 43.8269 42.6433 48.084C41.6188 51.0633 41.2479 54.1016 41.136 57.2517ZM40.9299 60.4842C40.8357 61.1908 40.7709 61.7148 40.6885 62.2389C40.5825 62.8866 40.7533 63.2987 41.4598 63.4989C45.0928 64.5352 48.7257 65.5892 52.341 66.6726C53.2949 66.9552 53.9367 66.7374 54.6256 65.9955C55.9209 64.5941 56.8925 64.8296 57.7109 66.549C57.8464 66.8375 58.2938 67.2202 58.5411 67.1849C62.2565 66.6549 65.9778 66.0956 69.2751 64.1348C70.3409 63.5048 71.3006 62.6923 72.3075 61.9621C72.2486 61.8503 72.1897 61.7384 72.1367 61.6265C61.7325 62.2624 51.3577 61.9386 40.9299 60.4842ZM9.82908 33.2578C10.6122 33.458 11.0008 33.5816 11.4012 33.6523C15.2461 34.3412 19.091 34.1586 22.9124 33.5345C25.403 33.1282 27.8701 32.5335 30.3078 31.8976C31.5914 31.562 31.7622 30.8554 30.7612 29.9899C29.9604 29.301 28.9477 28.6121 27.9467 28.4472C26.1449 28.1528 24.2608 28.0821 22.4355 28.2117C18.4669 28.4943 14.7044 29.5659 11.3718 31.8505C10.9007 32.1744 10.5121 32.6277 9.82908 33.2578ZM65.6834 20.0744C65.6834 20.7574 65.7423 21.2873 65.6716 21.8055C65.5656 22.5532 65.9248 22.8005 66.5901 22.9065C71.8894 23.7839 77.1828 24.6671 82.4703 25.5915C83.1298 25.7093 83.3476 25.4384 83.5419 24.9203C84.1248 23.3599 84.7313 21.8113 85.326 20.2569C85.4379 19.9684 85.5144 19.6622 85.6557 19.2029C78.908 19.4973 72.3487 19.7858 65.6834 20.0744ZM59.6128 32.2686C59.8071 32.6219 59.9955 32.9869 60.1957 33.3402C61.7325 36.0311 63.2752 38.7219 64.8002 41.4186C65.7423 43.085 66.0426 43.1497 67.5322 41.8897C67.8502 41.6247 68.227 41.348 68.386 40.9888C69.122 39.346 69.8286 37.6797 70.4586 35.9898C70.541 35.7602 70.2054 35.2421 69.9287 35.036C67.7501 33.405 65.5421 31.8152 63.334 30.2195C63.0691 30.0311 62.7806 29.8721 62.5509 29.7249C61.5382 30.6022 60.602 31.4148 59.6128 32.2686ZM75.7697 77.1711C76.0111 77.9247 76.2584 78.5548 76.4115 79.2024C76.6411 80.1975 77.1769 80.5979 78.2309 80.6332C81.7519 80.7392 85.1729 80.2034 88.5291 79.2024C90.5252 78.6077 91.1375 77.6657 90.9373 75.6048C90.0659 75.281 88.9472 75.1985 88.4938 74.6039C88.0286 73.9974 88.2112 72.8904 88.0993 71.9424C84.3133 74.2388 80.3153 76.0935 75.7697 77.1711ZM82.5586 27.5993C76.8648 26.6337 71.3889 25.6916 65.9071 24.7966C65.6598 24.7554 65.2241 25.0498 65.0887 25.303C64.6294 26.1626 64.2702 27.0753 63.8169 28.0998C66.1662 29.8015 68.5332 31.5208 71.0298 33.3284C71.2299 32.5689 71.3772 31.9918 71.5361 31.4207C72.019 29.6896 72.9493 28.4237 74.8747 28.1469C76.7765 27.8761 77.96 28.877 78.855 30.3726C79.3555 31.2028 79.8148 32.0566 80.4154 33.1282C81.1573 31.1969 81.8226 29.4953 82.5586 27.5993ZM63.6226 43.3617C61.6442 39.8995 59.7305 36.5374 57.8464 33.2342C56.5569 33.6228 55.4205 33.9113 54.3312 34.3294C54.0368 34.4413 53.6953 34.9535 53.707 35.2656C53.7954 37.2676 53.9661 39.2636 54.1251 41.2597C54.2193 42.4491 54.3371 43.6385 54.443 44.7572C57.5461 44.2861 60.5136 43.8328 63.6226 43.3617ZM97.9913 90.5488C100.659 90.9315 103.073 91.2907 105.499 91.6027C105.687 91.6263 106.064 91.3495 106.105 91.1611C106.523 89.2475 107 87.3339 107.247 85.3908C107.471 83.6421 106.276 81.9875 104.739 81.5165C102.89 80.9512 100.747 81.5989 100.082 83.3241C99.1924 85.6558 98.6743 88.1288 97.9913 90.5488ZM41.4598 44.4922C41.5423 44.504 41.6188 44.5158 41.7012 44.5275C42.8023 40.9535 43.8975 37.3794 44.9809 33.8525C43.1262 32.9339 41.4127 32.086 39.6169 31.1911C37.9623 33.0811 36.2371 34.9948 34.5884 36.9614C33.7759 37.9329 34.3411 39.1576 35.5718 39.2989C36.4373 39.399 37.297 39.5227 38.1507 39.6875C39.6345 39.9702 40.5707 40.8475 40.9122 42.3431C41.0712 43.0673 41.2714 43.7798 41.4598 44.4922ZM37.2911 72.3369C36.7965 77.7775 36.8318 83.0238 40.6473 87.593C41.4068 83.2476 43.1203 79.3968 45.8052 76.1406C42.8906 74.8394 40.1468 73.6088 37.2911 72.3369ZM70.8354 41.766C71.8894 41.8779 73.1848 42.1664 74.4507 42.0899C75.1455 42.0487 76.0523 41.5658 76.435 41.0006C77.4537 39.4697 78.2427 37.7857 79.1023 36.1488C79.1965 35.9722 79.2201 35.666 79.1318 35.4952C78.2898 33.8525 77.5066 32.1685 76.5116 30.6258C75.911 29.6955 74.5508 29.8898 73.9208 30.8554C73.6617 31.2558 73.491 31.7386 73.3673 32.2097C72.5371 35.295 71.7304 38.3922 70.8354 41.766ZM101.047 66.3841C101.135 66.4606 101.183 66.5372 101.247 66.549C105.092 67.3733 108.937 68.1917 112.782 68.9925C112.988 69.0337 113.324 68.9336 113.447 68.7805C114.001 68.074 113.895 66.4724 113.277 65.7423C112.034 64.2644 110.751 62.8218 109.532 61.3262C109.108 60.8081 108.725 60.7904 108.166 61.0436C106.511 61.7914 104.869 62.5922 103.161 63.1928C101.565 63.758 101.135 64.9239 101.047 66.3841ZM35.3421 80.1445C35.3421 77.2653 35.3598 74.4508 35.3127 71.6304C35.3068 71.3595 34.9712 70.965 34.6944 70.8473C33.0988 70.1819 31.4854 69.5283 29.8485 68.9866C29.0595 68.7217 28.1881 68.6981 27.2107 68.5391C27.2166 71.5185 28.0998 73.9974 29.5188 76.3114C29.5954 76.4292 29.7367 76.5175 29.8662 76.594C31.6326 77.7481 33.3991 78.8904 35.3421 80.1445ZM78.2603 82.9061C79.591 85.8383 84.8373 89.4124 87.7578 89.2181C88.4173 86.5449 89.0826 83.8481 89.7185 81.2456C85.8618 81.805 82.0758 82.3526 78.2603 82.9061ZM84.9138 111.593C81.3457 111.722 78.3486 110.297 75.7814 107.783C75.069 108.99 74.4448 110.044 73.7736 111.192C77.4478 113.465 80.5979 116.286 83.1533 119.695C83.7421 116.986 84.3074 114.384 84.9138 111.593ZM93.6518 46.5531C95.0943 46.0172 96.2484 45.5874 97.3671 45.1694C96.6429 41.3715 95.9481 37.7209 95.2474 34.0644C92.1444 34.7239 92.0384 34.8593 92.2268 37.7445C92.2327 37.821 92.2268 37.8976 92.2386 37.9682C92.6979 40.7592 93.1572 43.5442 93.6518 46.5531ZM96.9903 31.0497C97.638 30.7907 98.2562 30.5139 98.8922 30.2961C99.4692 30.0959 99.6164 29.8015 99.4456 29.1832C98.3504 25.2147 97.2906 21.2343 96.2366 17.254C96.007 16.3766 95.4064 16.1882 94.6822 16.4414C94.0227 16.6769 93.3161 16.9655 93.5811 17.9723C94.7175 22.2706 95.8303 26.5807 96.9903 31.0497ZM100.146 31.9447C99.4103 32.2391 98.8392 32.5218 98.2386 32.6984C97.3436 32.9575 97.0904 33.4344 97.2965 34.3647C97.7734 36.5374 98.1502 38.7278 98.5683 40.9123C98.7685 41.9662 98.9805 43.0202 99.2395 44.3627C100.329 43.5737 101.188 42.9849 102.001 42.3431C102.172 42.2076 102.313 41.8661 102.272 41.6659C101.595 38.4687 100.882 35.2774 100.146 31.9447ZM89.8775 35.9898C89.0649 36.2548 88.223 36.4668 87.4457 36.8259C87.2043 36.9378 86.9923 37.456 87.0218 37.7621C87.1337 38.9633 87.3574 40.1527 87.5282 41.348C87.8402 43.503 88.1523 45.6522 88.4761 47.9014C89.4594 47.6541 90.3485 47.4834 91.1905 47.1948C91.4261 47.1124 91.7087 46.6414 91.6734 46.4C91.114 42.979 90.5016 39.5698 89.8775 35.9898ZM92.168 19.9625C92.062 19.9566 91.956 19.9507 91.85 19.9389C91.5438 20.5336 91.2789 21.1578 90.9197 21.723C89.9717 23.2245 89.8422 24.7377 90.4192 26.4453C90.902 27.8643 91.0846 29.3834 91.4025 30.8554C91.5556 31.5679 91.7146 32.2745 91.8912 33.0811C92.7862 32.7337 93.5575 32.5159 94.2406 32.139C94.535 31.9801 94.8706 31.4384 94.8058 31.1557C93.9638 27.4227 93.0571 23.6955 92.168 19.9625ZM35.4422 25.4855C33.611 25.8741 31.7563 26.2627 30.1135 26.6101C31.1439 27.7524 32.4216 28.7063 33.0399 29.984C33.6699 31.2794 33.6464 32.8868 33.9525 34.6179C35.4481 32.9104 36.8024 31.3677 38.1036 29.878C37.2028 28.3942 36.3666 27.0164 35.4422 25.4855ZM81.4281 49.6561C82.959 49.2851 84.5017 48.9436 86.0149 48.5138C86.2092 48.4608 86.3976 47.9073 86.3682 47.6129C86.1857 45.923 85.9384 44.239 85.7029 42.555C85.5969 41.7778 85.4614 41.0006 85.3437 40.2234C84.0012 43.3676 83.4536 46.7061 81.4281 49.6561ZM60.7433 83.1533C62.3919 80.6391 63.9464 78.2662 65.5597 75.7991C63.864 76.1524 62.2094 76.4704 60.5725 76.8767C60.3547 76.9296 60.0897 77.4242 60.1133 77.6892C60.2781 79.4556 60.5137 81.2162 60.7433 83.1533ZM101.465 29.0537C103.255 28.6003 103.455 28.4413 103.214 27.6111C102.431 24.9085 101.371 22.3295 99.7518 20.0096C99.5398 19.7034 99.2749 19.4267 99.0335 19.1382C98.9569 19.1853 98.8745 19.2383 98.7979 19.2854C99.6812 22.512 100.564 25.7446 101.465 29.0537ZM103.979 30.4374C101.954 30.879 101.919 30.9438 102.319 32.6925C102.749 34.5649 103.155 36.4432 103.585 38.3215C103.667 38.6925 103.785 39.0516 103.885 39.4167C103.991 39.399 104.103 39.3755 104.209 39.3578C105.033 36.3726 104.68 33.4109 103.979 30.4374ZM88.8235 27.9173C88.6881 27.9232 88.5527 27.9232 88.4173 27.9291C87.7931 30.196 87.1749 32.4688 86.4742 35.0242C87.6341 34.6297 88.5232 34.3588 89.377 33.9997C89.5772 33.9172 89.8127 33.5227 89.7774 33.3167C89.4889 31.509 89.1474 29.7131 88.8235 27.9173ZM120.601 70.7354C120.684 70.3585 120.749 70.0406 120.837 69.6343C120.443 69.5401 120.101 69.4577 119.754 69.3693C119.341 70.282 119.418 70.7943 120.601 70.7354Z" fill="white"/>
<path d="M80.3919 121.685C80.1799 121.997 80.0504 122.415 79.8089 122.492C79.4674 122.598 78.9434 122.592 78.6843 122.392C77.966 121.838 77.3595 121.149 76.6883 120.537C72.1368 116.392 66.9494 113.512 60.7846 112.576C54.8788 111.681 49.2381 112.694 43.8269 115.061C41.6542 116.015 39.5993 117.251 37.5031 118.388C36.8495 118.741 36.1901 119.224 35.6425 118.346C35.1361 117.534 35.7838 117.11 36.3785 116.733C42.3667 112.935 48.8141 110.462 55.9799 110.303C64.5765 110.115 71.8247 113.4 78.0837 119.118C78.6725 119.654 79.2437 120.207 79.7913 120.784C80.0268 121.02 80.1681 121.332 80.3919 121.685Z" fill="white"/>
<path d="M118.723 36.826C118.764 41.3951 118.158 45.8171 115.75 49.8268C113.759 53.1477 110.933 55.6207 107.43 57.1281C104.527 58.3704 101.436 59.1712 98.4152 60.1369C97.7557 60.343 97.055 60.2723 96.8784 59.4362C96.7076 58.606 97.3141 58.3351 98.0089 58.1879C101.43 57.4755 104.739 56.4686 107.801 54.7257C113.412 51.5226 116.179 46.5766 116.592 40.2587C116.751 37.8152 116.603 35.3481 116.58 32.8927C116.574 32.1744 116.55 31.4325 117.51 31.3972C118.399 31.3677 118.488 32.092 118.529 32.7514C118.605 34.1057 118.658 35.4658 118.723 36.826Z" fill="white"/>
<path d="M75.8934 122.674C75.6461 122.998 75.493 123.387 75.2398 123.481C74.9336 123.599 74.4626 123.587 74.1917 123.422C73.6441 123.092 73.1907 122.615 72.6902 122.215C64.3645 115.567 55.291 114.955 45.6698 118.918C44.4098 119.436 43.2263 120.13 41.9486 120.602C41.5482 120.749 40.9712 120.437 40.4766 120.331C40.6532 119.86 40.7003 119.13 41.03 118.947C49.2616 114.602 57.7699 112.8 66.7845 116.392C69.8699 117.622 72.6196 119.43 75.0867 121.656C75.387 121.932 75.5931 122.291 75.8934 122.674Z" fill="white"/>
<path d="M114.802 36.5021C114.825 40.9771 113.654 45.1105 111.181 48.8435C110.927 49.2263 110.397 49.6384 109.973 49.662C109.184 49.7091 109.002 48.8494 109.426 47.925C110.427 45.7346 111.634 43.5855 112.264 41.2891C113.394 37.1851 112.794 33.0223 111.952 28.9124C111.616 27.2814 111.234 25.6622 110.827 24.0488C110.651 23.3482 110.762 22.7888 111.463 22.5827C112.193 22.3707 112.558 22.8418 112.729 23.5248C113.807 27.7937 114.76 32.0743 114.802 36.5021Z" fill="white"/>
<path d="M70.4587 123.322C70.4352 124.393 69.6285 124.788 68.8984 124.293C68.3037 123.893 67.7973 123.363 67.1967 122.974C61.7031 119.424 56.0741 119.318 50.3274 122.344C49.6444 122.704 48.873 123.416 48.2842 122.409C47.7131 121.432 48.6434 121.025 49.3205 120.625C55.7209 116.863 64.2173 117.628 69.7639 122.474C70.0819 122.751 70.3056 123.133 70.4587 123.322Z" fill="white"/>
<path d="M122.421 40.8887C121.897 45.5815 121.367 49.9387 118.511 53.4244C116.974 55.2969 114.967 56.7924 113.088 58.3704C112.806 58.606 111.917 58.5353 111.634 58.2644C111.075 57.7345 111.475 57.1693 112.028 56.7689C114.578 54.9495 117.11 53.0299 118.252 50.0211C119.153 47.6424 119.6 45.0869 120.225 42.6022C120.354 42.0899 120.384 41.5541 120.431 41.03C120.49 40.3529 120.855 39.8701 121.514 40.0644C121.938 40.1822 122.238 40.7121 122.421 40.8887Z" fill="white"/>
<path d="M98.4976 107.283C99.9461 107.53 101.4 107.754 102.849 108.031C103.556 108.166 104.256 108.454 104.003 109.361C103.773 110.191 103.067 110.062 102.401 109.944C101.212 109.732 100.023 109.467 98.8215 109.391C94.2052 109.079 90.9315 111.675 90.1307 116.221C90.0188 116.851 90.0836 117.54 89.8598 118.123C89.7067 118.517 89.1945 118.77 88.8471 119.082C88.5527 118.717 87.9874 118.341 87.9992 117.981C88.17 112.123 91.379 107.96 97.1198 107.465C97.5732 107.424 98.0266 107.424 98.48 107.4C98.4859 107.365 98.4918 107.324 98.4976 107.283Z" fill="white"/>
<path d="M116.78 59.8071C117.133 59.1064 117.599 57.9583 118.264 56.9455C118.882 56.0093 119.883 55.3086 120.431 54.343C121.29 52.818 121.95 51.1752 122.615 49.5501C122.886 48.8906 122.874 47.9897 123.893 48.1899C125.006 48.4019 124.676 49.2851 124.541 50.0152C124.058 52.5707 122.892 54.7669 121.126 56.6747C118.246 59.7836 118.193 60.5431 120.378 64.1996C120.59 64.5588 120.925 64.9062 120.967 65.283C121.008 65.6657 120.872 66.2663 120.607 66.4312C120.331 66.6019 119.589 66.5077 119.418 66.2722C118.134 64.4822 117.004 62.6098 116.78 59.8071Z" fill="white"/>
<path d="M97.903 110.539C98.3328 110.609 99.0806 110.71 99.8166 110.869C100.47 111.01 100.882 111.504 100.588 112.099C100.423 112.441 99.8107 112.611 99.3632 112.741C99.1041 112.812 98.7803 112.641 98.48 112.588C96.3838 112.235 94.9471 113.1 94.2995 115.12C94.1817 115.479 94.2229 115.938 94.0051 116.197C93.7342 116.521 93.2278 116.927 92.9099 116.863C92.586 116.792 92.1209 116.174 92.1562 115.838C92.48 113.024 94.1581 110.633 97.903 110.539Z" fill="white"/>
<path d="M123.946 61.1202C123.681 60.4136 123.345 59.8307 123.263 59.2124C123.133 58.2291 123.069 57.2105 123.204 56.2389C123.251 55.9092 123.993 55.6796 124.417 55.4087C124.623 55.8621 124.906 56.2919 125.012 56.7689C125.194 57.5873 125.129 58.4764 125.406 59.2478C126.23 61.5441 125.318 64.0406 123.098 65.0652C122.78 65.2124 122.068 65.1123 121.92 64.8826C121.726 64.5765 121.756 63.9464 121.95 63.6049C122.221 63.1339 122.78 62.8395 123.139 62.4096C123.469 62.0151 123.693 61.5382 123.946 61.1202Z" fill="white"/>
<path d="M120.602 70.7354C119.418 70.7943 119.341 70.282 119.76 69.3694C120.107 69.4518 120.443 69.5342 120.843 69.6343C120.749 70.0406 120.684 70.3586 120.602 70.7354Z" fill="white"/>
<path d="M53.9485 88.9884C52.1586 88.5704 50.3686 88.1641 48.5904 87.7166C47.9191 87.5518 47.5011 87.0925 47.7543 86.3741C48.0016 85.6558 48.5786 85.591 49.2381 85.8501C51.5403 86.7569 53.9132 86.9924 56.3568 86.592C57.0751 86.4742 57.817 86.5037 57.8877 87.4399C57.9524 88.2819 57.2871 88.4762 56.5982 88.541C55.7326 88.6293 54.873 88.7058 54.0074 88.7883C53.9839 88.8589 53.9662 88.9237 53.9485 88.9884Z" fill="white"/>
<path d="M55.3792 84.3015C54.025 84.0189 52.6472 83.8069 51.3223 83.4065C50.9455 83.2888 50.4686 82.6057 50.498 82.2171C50.5628 81.4694 51.2105 81.4694 51.8935 81.5577C53.5598 81.7814 55.2379 81.9345 56.916 82.0464C57.599 82.0935 58.1466 82.2171 58.1819 83.0003C58.2173 83.7893 57.6873 84.0307 57.0043 84.0483C56.4744 84.0601 55.9504 84.0483 55.4204 84.0483C55.4087 84.1367 55.391 84.2191 55.3792 84.3015Z" fill="white"/>
<path d="M22.1588 44.7984C21.9939 44.9868 21.7466 45.5109 21.3698 45.6463C20.7338 45.87 20.304 45.4579 20.2039 44.7807C20.0626 43.8151 19.8506 42.8436 19.8624 41.8779C19.8683 41.4952 20.3864 41.1184 20.675 40.7356C21.0341 41.0477 21.5994 41.3009 21.7113 41.6836C21.9586 42.5786 21.9939 43.5384 22.1588 44.7984Z" fill="white"/>
<path d="M22.5826 49.4912C22.7711 49.2851 23.0714 48.6846 23.4894 48.5786C24.2254 48.3843 24.5022 49.0143 24.5846 49.6737C24.6906 50.4922 24.8083 51.3106 24.9143 52.1291C25.0026 52.8003 24.8201 53.4657 24.0723 53.4245C23.6896 53.4068 23.1479 52.8533 23.0184 52.4353C22.7711 51.6227 22.7534 50.7336 22.5826 49.4912Z" fill="white"/>
</svg>
